<svg width="169" height="47" viewBox="0 0 169 47" fill="none" xmlns="http://www.w3.org/2000/svg">
<path fill-rule="evenodd" clip-rule="evenodd" d="M23.5 46C35.9264 46 46 35.9264 46 23.5C46 11.0736 35.9264 1 23.5 1C11.0736 1 1 11.0736 1 23.5C1 35.9264 11.0736 46 23.5 46Z" stroke="#DFDFDF"/>
<path opacity="0.7" fill-rule="evenodd" clip-rule="evenodd" d="M27.2577 18.047C26.7966 17.9124 26.2664 17.8226 25.7823 17.8226C25.1829 17.8226 23.8919 18.2041 23.8919 18.9446V20.7174H26.958V23.702H23.8919V31.9375H20.8028V23.702H19.2812V20.7174H20.8028V19.2139C20.8028 16.9475 21.8632 15.0625 24.4221 15.0625C25.2982 15.0625 26.8658 15.1074 27.7188 15.3991L27.2577 18.047Z" fill="#3D3D3D"/>
<path fill-rule="evenodd" clip-rule="evenodd" d="M84.5 46C96.9264 46 107 35.9264 107 23.5C107 11.0736 96.9264 1 84.5 1C72.0736 1 62 11.0736 62 23.5C62 35.9264 72.0736 46 84.5 46Z" stroke="#DFDFDF"/>
<path opacity="0.7" fill-rule="evenodd" clip-rule="evenodd" d="M89.1949 19.8537C89.1949 19.8537 89.1949 19.7124 89.1949 19.8537C88.4751 19.147 87.6115 18.8644 86.7478 19.0057C87.6115 18.8644 88.0433 18.5817 88.1873 18.4403C88.1873 18.299 88.1873 18.1577 88.0433 18.1577C87.6115 18.1577 87.1796 18.299 86.8917 18.4403C87.3236 18.1577 87.4675 18.0163 87.4675 17.875C87.0357 17.875 86.6038 18.1577 86.0281 18.5817C86.172 18.299 86.3159 18.1577 86.172 18.0163C85.8841 18.1577 85.7402 18.299 85.5962 18.5817C85.1644 19.0057 84.8765 19.2884 84.7325 19.7124C84.1567 20.7017 83.7249 21.5498 83.437 22.5391H83.2931C83.0052 22.1151 82.5733 21.6911 81.9975 21.4084C81.4218 20.9844 80.702 20.7017 79.8383 20.2777C78.9747 19.8537 78.111 19.4297 77.1033 19.147C77.1033 20.1364 77.5352 20.9844 78.5428 21.5498C78.2549 21.5498 77.8231 21.5498 77.5352 21.6911C77.5352 22.5391 78.2549 23.2458 79.5504 23.5285C79.1186 23.5285 78.6868 23.6698 78.2549 23.9525C78.6868 24.8005 79.4065 25.0832 80.5581 25.0832C80.4141 25.2245 80.1262 25.3659 80.1262 25.3659C79.9823 25.5072 79.8383 25.7899 79.9823 26.0726C80.2702 26.4966 80.5581 26.6379 81.2778 26.6379C80.2702 27.6273 78.9747 28.1926 77.5352 28.0513C76.6715 28.0513 75.6639 27.6273 74.6563 26.7793C75.6639 28.1926 77.1033 29.3233 78.8307 30.03C80.846 30.5954 82.8612 30.7367 84.7325 30.1713C86.6038 29.606 88.3312 28.4753 89.6267 26.9206C90.2025 26.0726 90.6344 25.2245 90.7783 24.3765C91.7859 24.3765 92.5057 24.0938 92.9375 23.5285C92.6496 23.6698 91.9299 23.6698 90.9222 23.3872C91.9299 23.2458 92.6496 22.9631 92.7936 22.3978C92.0738 22.6805 91.3541 22.6805 90.6344 22.3978C90.4904 21.4084 90.0586 20.5604 89.1949 19.8537Z" fill="#3D3D3D"/>
<path fill-rule="evenodd" clip-rule="evenodd" d="M145.5 46C157.926 46 168 35.9264 168 23.5C168 11.0736 157.926 1 145.5 1C133.074 1 123 11.0736 123 23.5C123 35.9264 133.074 46 145.5 46Z" stroke="#DFDFDF"/>
<path opacity="0.7" fill-rule="evenodd" clip-rule="evenodd" d="M151.749 15.0625H137.844C137.034 15.0625 136.359 15.7375 136.359 16.5475V20.6819H141.979C142.823 20.0744 143.717 19.5512 144.797 19.5512C145.843 19.5512 146.788 20.0744 147.615 20.6819H153.234V16.5475C153.234 15.7375 152.559 15.0625 151.749 15.0625ZM152.104 18.9775C152.104 19.2981 151.851 19.5681 151.53 19.5681H149.319C148.999 19.5681 148.729 19.2981 148.729 18.9775V16.7669C148.729 16.4462 148.999 16.1931 149.319 16.1931H151.53C151.851 16.1931 152.104 16.4462 152.104 16.7669V18.9775ZM147.615 24.0569C147.615 22.5044 146.349 21.2556 144.797 21.2556C143.244 21.2556 141.979 22.5044 141.979 24.0569C141.979 25.6094 143.244 26.875 144.797 26.875C146.349 26.875 147.615 25.6094 147.615 24.0569ZM149.1 22.9431C149.201 23.2806 149.235 23.635 149.235 23.9894C149.235 26.4531 147.244 28.4444 144.797 28.4444C142.35 28.4444 140.359 26.4531 140.359 23.9894C140.359 23.635 140.392 23.2806 140.494 22.9431H136.359V30.4525C136.359 31.2625 137.034 31.9375 137.844 31.9375H151.749C152.559 31.9375 153.234 31.2625 153.234 30.4525V22.9431H149.1Z" fill="#3D3D3D"/>
</svg>
